<?xml version="1.0" encoding="UTF-8"?>
<svg xmlns="http://www.w3.org/2000/svg"
     viewBox="0 0 2048 2048"
     width="2048"
     height="2048"
     preserveAspectRatio="none">

  <defs>
    <style>
      .cls-1 {
        fill: #fff;
      }
    </style>
  </defs>
  <g transform="translate(358, 574) scale(1.54)">
    <polygon class="cls-1" points="1172.2 416.39 1172.2 416.53 1005.68 900.84 908.25 900.84 352.79 0 600.6 0 930.78 526.59 1048.26 217.18 1172.2 416.39"/>
    <polygon class="cls-1" points="1330.67 0 1225.54 307.17 1093.4 94.65 1135.7 0 1330.67 0"/>
    <polyline class="cls-1" points="715.63 0 855.84 0 855.84 184.36 821.79 184.36"/>
    <path class="cls-1" d="m622.96,637.81v.14l102.43,164.83c-71.88,65.51-173.46,98.05-304.9,98.05C140.21,900.83,0,745.76,0,435.77V0h223.83v437.19c0,177.7,68.76,266.56,206.14,266.56,93.65,0,141.34-32.54,173.04-98.05"/>
  </g>
</svg>
